<?xml version="1.0" standalone="no"?><!DOCTYPE svg PUBLIC "-//W3C//DTD SVG 1.1//EN" "http://www.w3.org/Graphics/SVG/1.1/DTD/svg11.dtd"><svg t="1664100102853" class="icon" viewBox="0 0 1024 1024" version="1.1" xmlns="http://www.w3.org/2000/svg" p-id="2921" xmlns:xlink="http://www.w3.org/1999/xlink" width="200" height="200"><path d="M938.666667 96v736a21.333333 21.333333 0 0 1-32.666667 18.093333l-10-6.266666V138.666667a53.393333 53.393333 0 0 0-53.333333-53.333334H257.073333A53.426667 53.426667 0 0 1 309.333333 42.666667h576a53.393333 53.393333 0 0 1 53.333334 53.333333z m-138.666667 32H181.333333a53.393333 53.393333 0 0 0-53.333333 53.333333v778.666667a21.333333 21.333333 0 0 0 32.666667 18.093333l330-206.266666 330 206.266666a21.333333 21.333333 0 0 0 32.666666-18.093333V181.333333a53.393333 53.393333 0 0 0-53.333333-53.333333z" fill="#1296db" p-id="2922"></path></svg>